<?xml version="1.0" encoding="UTF-8" standalone="no"?>
<svg
   xmlns:dc="http://purl.org/dc/elements/1.1/"
   xmlns:cc="http://creativecommons.org/ns#"
   xmlns:rdf="http://www.w3.org/1999/02/22-rdf-syntax-ns#"
   xmlns:svg="http://www.w3.org/2000/svg"
   xmlns="http://www.w3.org/2000/svg"
   xmlns:sodipodi="http://sodipodi.sourceforge.net/DTD/sodipodi-0.dtd"
   xmlns:inkscape="http://www.inkscape.org/namespaces/inkscape"
   sodipodi:docname="Logo tic.svg"
   inkscape:version="1.0 (4035a4fb49, 2020-05-01)"
   id="svg8"
   version="1.1"
   viewBox="0 0 210 297"
   height="297mm"
   width="210mm">
  <defs
     id="defs2" />
  <sodipodi:namedview
     inkscape:window-maximized="0"
     inkscape:window-y="0"
     inkscape:window-x="4"
     inkscape:window-height="967"
     inkscape:window-width="1260"
     showgrid="false"
     inkscape:document-rotation="0"
     inkscape:current-layer="layer1"
     inkscape:document-units="mm"
     inkscape:cy="609.50535"
     inkscape:cx="327.03952"
     inkscape:zoom="0.7"
     inkscape:pageshadow="2"
     inkscape:pageopacity="0.0"
     borderopacity="1.0"
     bordercolor="#666666"
     pagecolor="#ffffff"
     id="base" />
  <metadata
     id="metadata5">
    <rdf:RDF>
      <cc:Work
         rdf:about="">
        <dc:format>image/svg+xml</dc:format>
        <dc:type
           rdf:resource="http://purl.org/dc/dcmitype/StillImage" />
        <dc:title></dc:title>
      </cc:Work>
    </rdf:RDF>
  </metadata>
  <g
     id="layer1"
     inkscape:groupmode="layer"
     inkscape:label="Capa 1">
    <circle
       r="51.971722"
       cy="160.82887"
       cx="104.88841"
       id="path12"
       style="fill:#ffcc00;stroke-width:0.26555" />
    <ellipse
       ry="49.404766"
       rx="49.098404"
       cy="160.3503"
       cx="104.94906"
       id="path52"
       style="fill:#ffe680;stroke-width:0.280876" />
    <ellipse
       ry="6.6976514"
       rx="5.7420211"
       cy="148.41405"
       cx="123.90381"
       id="path14"
       style="fill:#241f1c;stroke-width:0.290046" />
    <circle
       r="46.113098"
       cy="161.01785"
       cx="105.07739"
       id="path10"
       style="fill:#ffdd55;stroke-width:0.293447" />
    <ellipse
       style="fill:#241f1c;stroke-width:0.217534"
       id="ellipse16"
       cx="124.92918"
       cy="147.57684"
       rx="4.3065157"
       ry="5.0232387" />
    <ellipse
       ry="15.578018"
       rx="13.355326"
       cy="149.75955"
       cx="89.989998"
       id="ellipse16-2"
       style="fill:#ffffff;stroke-width:0.674616" />
    <ellipse
       ry="8.9017258"
       rx="7.6316142"
       cy="150.87228"
       cx="89.989998"
       id="ellipse16-1"
       style="fill:#241f1c;stroke-width:0.385494" />
    <path
       inkscape:transform-center-y="14.496935"
       inkscape:transform-center-x="10.105964"
       transform="matrix(0.94506068,-0.32689496,0.24057231,0.97063122,0,0)"
       d="m 99.992779,203.23491 a 35.926212,18.549629 0 0 1 -20.147373,16.66478 35.926212,18.549629 0 0 1 -37.844878,-2.0264 35.926212,18.549629 0 0 1 -13.095667,-18.44476 l 35.161705,3.80638 z"
       sodipodi:arc-type="slice"
       sodipodi:end="3.3482606"
       sodipodi:start="0"
       sodipodi:ry="18.549629"
       sodipodi:rx="35.926212"
       sodipodi:cy="203.23491"
       sodipodi:cx="64.066566"
       sodipodi:type="arc"
       id="path58"
       style="fill:#aa8800;stroke-width:0.550323" />
    <path
       d="m 100.02886,186.02771 a 7.4496593,21.976368 0 0 1 -4.073435,21.72971 7.4496593,21.976368 0 0 1 -8.340651,-3.34418 7.4496593,21.976368 0 0 1 -1.959655,-24.1487 l 6.957834,7.85271 z"
       sodipodi:arc-type="slice"
       sodipodi:end="3.5069948"
       sodipodi:start="6.1879601"
       sodipodi:ry="21.976368"
       sodipodi:rx="7.4496593"
       sodipodi:cy="188.11725"
       sodipodi:cx="92.612953"
       sodipodi:type="arc"
       id="path62"
       style="fill:#ff0000;stroke-width:0.433186" />
    <path
       style="fill:#ff5555;stroke-width:0.350727"
       id="path62-3"
       sodipodi:type="arc"
       sodipodi:cx="92.612953"
       sodipodi:cy="188.11725"
       sodipodi:rx="6.0315738"
       sodipodi:ry="17.793041"
       sodipodi:start="6.1879601"
       sodipodi:end="3.5069948"
       sodipodi:arc-type="slice"
       d="m 98.617201,186.42546 a 6.0315738,17.793041 0 0 1 -3.298035,17.59335 6.0315738,17.793041 0 0 1 -6.75296,-2.70761 6.0315738,17.793041 0 0 1 -1.586623,-19.55185 l 5.63337,6.3579 z" />
    <path
       style="fill:#ff8080;stroke-width:0.290324"
       id="path62-4"
       sodipodi:type="arc"
       sodipodi:cx="92.612953"
       sodipodi:cy="188.11725"
       sodipodi:rx="4.9928141"
       sodipodi:ry="14.728717"
       sodipodi:start="6.1879601"
       sodipodi:end="3.5069948"
       sodipodi:arc-type="slice"
       d="m 97.583147,186.71682 a 4.9928141,14.728717 0 0 1 -2.730046,14.56341 4.9928141,14.728717 0 0 1 -5.589963,-2.2413 4.9928141,14.728717 0 0 1 -1.313374,-16.18462 l 4.663189,5.26294 z" />
    <path
       style="fill:#ffd5d5;stroke-width:0.166349"
       id="path62-6"
       sodipodi:type="arc"
       sodipodi:cx="92.612953"
       sodipodi:cy="188.11725"
       sodipodi:rx="2.1566429"
       sodipodi:ry="11.194408"
       sodipodi:start="6.1879601"
       sodipodi:end="3.5069948"
       sodipodi:arc-type="slice"
       d="m 94.759825,187.05287 a 2.1566429,11.194408 0 0 1 -1.179241,11.06877 2.1566429,11.194408 0 0 1 -2.414581,-1.70348 2.1566429,11.194408 0 0 1 -0.567311,-12.30095 l 2.014261,4.00004 z" />
    <path
       transform="matrix(0.95277542,-0.3036758,0.31780621,0.94815569,0,0)"
       d="M 81.670583,198.31224 A 37.662716,9.8728056 0 0 1 61.076805,208.07427 37.662716,9.8728056 0 0 1 18.90948,206.57189 37.662716,9.8728056 0 0 1 9.0023649,195.72313 l 35.1761441,3.52786 z"
       sodipodi:arc-type="slice"
       sodipodi:end="3.5070011"
       sodipodi:start="6.187957"
       sodipodi:ry="9.8728056"
       sodipodi:rx="37.662716"
       sodipodi:cy="199.25099"
       sodipodi:cx="44.178509"
       sodipodi:type="arc"
       id="path60"
       style="fill:#ffffff;stroke-width:0.332454" />
  </g>
</svg>
